<?xml version="1.0" encoding="UTF-8"?>
<svg version="1.1" xmlns="http://www.w3.org/2000/svg" width="1024" height="1024">
<path d="M0 0 C51.15 0 102.3 0 155 0 C155 17.16 155 34.32 155 52 C205.82 52 256.64 52 309 52 C309 85.66 309 119.32 309 154 C342 154 375 154 409 154 C409 120.34 409 86.68 409 52 C459.82 52 510.64 52 563 52 C563 34.84 563 17.68 563 0 C614.15 0 665.3 0 718 0 C718 33.99 718 67.98 718 103 C734.83 103 751.66 103 769 103 C769 136.66 769 170.32 769 205 C802.66 205 836.32 205 871 205 C871 306.97 871 408.94 871 514 C854.5 514 838 514 821 514 C821 530.83 821 547.66 821 565 C787.01 565 753.02 565 718 565 C718 598.99 718 632.98 718 668 C684.34 668 650.68 668 616 668 C616 684.17 616 700.34 616 717 C649.66 717 683.32 717 718 717 C718 768.15 718 819.3 718 872 C666.85 872 615.7 872 563 872 C563 838.34 563 804.68 563 770 C512.18 770 461.36 770 409 770 C409 736.34 409 702.68 409 668 C376 668 343 668 309 668 C309 701.66 309 735.32 309 770 C258.18 770 207.36 770 155 770 C155 803.66 155 837.32 155 872 C103.85 872 52.7 872 0 872 C0 820.85 0 769.7 0 717 C33.66 717 67.32 717 102 717 C102 700.83 102 684.66 102 668 C68.34 668 34.68 668 0 668 C0 634.01 0 600.02 0 565 C-33.99 565 -67.98 565 -103 565 C-103 548.17 -103 531.34 -103 514 C-119.5 514 -136 514 -153 514 C-153 412.03 -153 310.06 -153 205 C-119.34 205 -85.68 205 -51 205 C-51 171.34 -51 137.68 -51 103 C-34.17 103 -17.34 103 0 103 C0 69.01 0 35.02 0 0 Z " fill="#000000" transform="translate(153,50)"/>
<path d="M0 0 C17.16 0 34.32 0 52 0 C52 33.99 52 67.98 52 103 C119.32 103 186.64 103 256 103 C256 69.01 256 35.02 256 0 C273.16 0 290.32 0 308 0 C308 33.99 308 67.98 308 103 C324.83 103 341.66 103 359 103 C359 119.83 359 136.66 359 154 C375.83 154 392.66 154 410 154 C410 171.16 410 188.32 410 206 C426.83 206 443.66 206 461 206 C461 256.49 461 306.98 461 359 C494.66 359 528.32 359 563 359 C563 375.83 563 392.66 563 410 C529.34 410 495.68 410 461 410 C461 443.66 461 477.32 461 512 C427.34 512 393.68 512 359 512 C359 545.99 359 579.98 359 615 C325.01 615 291.02 615 256 615 C256 581.34 256 547.68 256 513 C188.68 513 121.36 513 52 513 C52 546.66 52 580.32 52 615 C18.01 615 -15.98 615 -51 615 C-51 581.01 -51 547.02 -51 512 C-84.66 512 -118.32 512 -153 512 C-153 478.34 -153 444.68 -153 410 C-186.66 410 -220.32 410 -255 410 C-255 393.17 -255 376.34 -255 359 C-221.34 359 -187.68 359 -153 359 C-153 308.51 -153 258.02 -153 206 C-136.17 206 -119.34 206 -102 206 C-102 188.84 -102 171.68 -102 154 C-85.17 154 -68.34 154 -51 154 C-51 137.17 -51 120.34 -51 103 C-34.17 103 -17.34 103 0 103 C0 69.01 0 35.02 0 0 Z " fill="#7F00FE" transform="translate(358,153)"/>
<path d="M0 0 C33.99 0 67.98 0 103 0 C103 50.82 103 101.64 103 154 C69.01 154 35.02 154 0 154 C0 103.18 0 52.36 0 0 Z " fill="#010002" transform="translate(614,409)"/>
<path d="M0 0 C33.99 0 67.98 0 103 0 C103 50.82 103 101.64 103 154 C69.01 154 35.02 154 0 154 C0 103.18 0 52.36 0 0 Z " fill="#010002" transform="translate(307,409)"/>
<path d="M0 0 C16.83 0 33.66 0 51 0 C51 67.65 51 135.3 51 205 C34.17 205 17.34 205 0 205 C0 137.35 0 69.7 0 0 Z " fill="#7F00FD" transform="translate(922,307)"/>
<path d="M0 0 C16.83 0 33.66 0 51 0 C51 67.65 51 135.3 51 205 C34.17 205 17.34 205 0 205 C0 137.35 0 69.7 0 0 Z " fill="#7F00FD" transform="translate(51,307)"/>
<path d="M0 0 C33.66 0 67.32 0 102 0 C102 33.66 102 67.32 102 102 C85.17 102 68.34 102 51 102 C51 85.17 51 68.34 51 51 C34.17 51 17.34 51 0 51 C0 34.17 0 17.34 0 0 Z " fill="#7F00FE" transform="translate(768,205)"/>
<path d="M0 0 C33.66 0 67.32 0 102 0 C102 16.83 102 33.66 102 51 C85.17 51 68.34 51 51 51 C51 67.83 51 84.66 51 102 C34.17 102 17.34 102 0 102 C0 68.34 0 34.68 0 0 Z " fill="#7F00FE" transform="translate(154,205)"/>
<path d="M0 0 C16.83 0 33.66 0 51 0 C51 16.83 51 33.66 51 51 C34.17 51 17.34 51 0 51 C0 34.17 0 17.34 0 0 Z " fill="#7F00FD" transform="translate(768,819)"/>
<path d="M0 0 C16.83 0 33.66 0 51 0 C51 16.83 51 33.66 51 51 C34.17 51 17.34 51 0 51 C0 34.17 0 17.34 0 0 Z " fill="#7F00FD" transform="translate(205,819)"/>
<path d="M0 0 C16.83 0 33.66 0 51 0 C51 16.5 51 33 51 50 C34.17 50 17.34 50 0 50 C0 33.5 0 17 0 0 Z " fill="#7F00FE" transform="translate(768,103)"/>
<path d="M0 0 C16.83 0 33.66 0 51 0 C51 16.5 51 33 51 50 C34.17 50 17.34 50 0 50 C0 33.5 0 17 0 0 Z " fill="#7F00FE" transform="translate(205,103)"/>
</svg>
